<?xml version="1.0" encoding="UTF-8" standalone="no"?>
<!-- Created with Inkscape (http://www.inkscape.org/) -->

<svg
   version="1.1"
   id="svg508"
   width="203.00697"
   height="149.67288"
   viewBox="0 0 203.00697 149.67288"
   xml:space="preserve"
   xmlns="http://www.w3.org/2000/svg"
   xmlns:svg="http://www.w3.org/2000/svg"><defs
     id="defs512" /><g
     id="g514"
     transform="translate(-255.37779,-99.185463)"><path
       style="fill:#000000;stroke-width:0.716006"
       d="m 280.55359,245.61303 c -15.79642,-4.00255 -19.08135,-5.12001 -22.326,-7.59483 -4.04122,-3.08238 -3.67567,-107.60371 0.40738,-116.48346 1.53097,-3.32952 3.00923,-7.46968 3.28503,-9.20036 1.82197,-11.43307 3.06574,-14.248489 5.10678,-11.55976 0.90588,1.19334 0.95226,1.19334 0.97394,0 0.0273,-1.500539 4.91265,-1.804779 6.32362,-0.3938 0.66828,0.66827 0.85921,0.66827 0.85921,0 0,-2.231159 43.06502,-1.070059 47.32097,1.27584 4.88522,2.69275 10.75847,3.00529 13.20924,0.70292 1.55204,-1.45807 1.55204,-1.45807 2.04112,4.4064 0.70283,8.42757 1.45597,8.53784 1.86917,0.27369 0.26537,-5.30732 0.59596,-7.111619 1.2776,-6.97286 14.82052,3.01695 54.62887,24.82717 54.19805,29.69406 -0.55703,6.29272 12.52649,9.09141 15.88916,3.39884 0.70248,-1.18919 1.60675,-2.02632 2.0095,-1.86028 35.87323,14.78907 43.71438,19.51269 44.37843,26.73424 0.24551,2.66994 0.60427,5.87646 0.79726,7.12561 0.19297,1.24916 0.0188,2.47643 -0.38711,2.72728 -0.40588,0.25085 -0.73797,1.90601 -0.73797,3.67812 0,1.77211 0.26058,3.06098 0.57907,2.86414 0.31848,-0.19684 0.64894,4.7579 0.73434,11.01053 0.1791,13.11131 -0.29771,13.62606 -17.78154,19.19656 -4.92254,1.56836 -12.93923,4.49656 -17.81487,6.50708 -6.66149,2.74695 -9.7652,3.65551 -12.48746,3.65551 -6.47775,0 -15.81761,3.53111 -14.11987,5.33827 1.38098,1.46998 1.38098,1.46998 -18.08974,8.18594 -11.7396,4.0493 -22.80685,8.38364 -27.87276,10.91598 -8.40206,4.20004 -8.40206,4.20004 -18.97414,4.2036 -10.02164,0.004 -11.14217,0.1525 -21.52098,2.86402 -13.39834,3.5004 -12.51364,3.52144 -29.14743,-0.69328 z"
       id="path706" /></g></svg>
